<svg xmlns="http://www.w3.org/2000/svg" width="600" height="600" viewBox="0 0 41 41" shape-rendering="crispEdges"><path fill="#ffffff" d="M0 0h41v41H0z"/><path stroke="#000000" d="M2 2.5h7m2 0h1m1 0h2m2 0h1m1 0h4m2 0h1m4 0h1m1 0h7M2 3.5h1m5 0h1m2 0h1m10 0h1m1 0h1m2 0h3m2 0h1m5 0h1M2 4.5h1m1 0h3m1 0h1m1 0h2m1 0h2m7 0h4m2 0h3m1 0h1m1 0h3m1 0h1M2 5.5h1m1 0h3m1 0h1m1 0h1m5 0h4m4 0h6m2 0h1m1 0h3m1 0h1M2 6.5h1m1 0h3m1 0h1m1 0h3m2 0h1m3 0h3m3 0h2m3 0h1m1 0h1m1 0h3m1 0h1M2 7.5h1m5 0h1m1 0h1m1 0h7m5 0h1m3 0h2m2 0h1m5 0h1M2 8.5h7m1 0h1m1 0h1m1 0h1m1 0h1m1 0h1m1 0h1m1 0h1m1 0h1m1 0h1m1 0h1m1 0h1m1 0h7M10 9.5h1m2 0h1m4 0h1m2 0h3m1 0h1m2 0h1m1 0h1M2 10.5h1m1 0h5m2 0h2m1 0h3m2 0h1m1 0h1m2 0h5m1 0h1m1 0h5M5 11.5h1m1 0h1m3 0h1m3 0h4m1 0h3m2 0h1m1 0h1m2 0h2m1 0h1m2 0h2M4 12.5h1m1 0h1m1 0h4m2 0h3m2 0h2m2 0h2m4 0h5m3 0h2M2 13.5h2m5 0h2m4 0h1m2 0h1m1 0h1m1 0h4m2 0h1m1 0h1m1 0h2m4 0h1M2 14.5h3m1 0h1m1 0h1m1 0h3m1 0h3m2 0h1m4 0h5m2 0h8M9 15.5h3m3 0h2m1 0h6m1 0h1m2 0h1m2 0h1m1 0h1M3 16.5h1m2 0h1m1 0h2m7 0h3m2 0h3m4 0h2m1 0h4m2 0h1M2 17.5h1m7 0h2m1 0h1m2 0h2m5 0h2m1 0h1m1 0h4m1 0h2m3 0h1M2 18.5h1m5 0h7m4 0h2m3 0h6m1 0h2m1 0h1m1 0h2M6 19.5h2m2 0h3m2 0h3m1 0h4m1 0h3m4 0h1m1 0h1m1 0h1m1 0h1M3 20.5h1m2 0h5m3 0h4m2 0h1m1 0h2m4 0h2m1 0h2m1 0h1m1 0h3M2 21.5h2m1 0h1m1 0h1m3 0h2m1 0h2m1 0h2m2 0h5m4 0h3m5 0h1M4 22.5h2m2 0h1m7 0h1m2 0h1m1 0h1m2 0h1m1 0h3m1 0h3m1 0h3M2 23.5h2m3 0h1m1 0h3m1 0h2m1 0h1m1 0h6m1 0h1m9 0h1M2 24.5h1m1 0h2m2 0h2m2 0h1m1 0h1m1 0h2m1 0h1m2 0h2m2 0h2m1 0h1m2 0h4m1 0h2M3 25.5h1m1 0h1m6 0h1m2 0h4m1 0h4m1 0h1m2 0h1m2 0h1m1 0h2m2 0h2M2 26.5h1m1 0h1m3 0h1m1 0h1m3 0h1m2 0h1m1 0h1m2 0h1m1 0h6m1 0h4m1 0h1m1 0h1M2 27.5h2m7 0h4m3 0h3m1 0h2m1 0h1m1 0h1m2 0h1m2 0h1m2 0h1M2 28.5h1m1 0h3m1 0h1m3 0h1m3 0h4m6 0h1m2 0h4m3 0h3M2 29.5h1m1 0h4m1 0h1m1 0h4m1 0h3m4 0h3m4 0h1m6 0h1M2 30.5h1m2 0h4m2 0h1m2 0h1m1 0h1m2 0h1m1 0h1m2 0h5m1 0h7m1 0h1M10 31.5h1m2 0h1m1 0h1m2 0h6m1 0h4m1 0h1m3 0h2M2 32.5h7m2 0h3m2 0h3m1 0h1m1 0h2m2 0h1m3 0h1m1 0h1m1 0h1m1 0h3M2 33.5h1m5 0h1m1 0h1m1 0h1m1 0h1m1 0h3m1 0h1m2 0h4m3 0h1m3 0h2m1 0h1M2 34.5h1m1 0h3m1 0h1m1 0h1m1 0h2m2 0h2m1 0h1m1 0h1m2 0h1m1 0h9m1 0h1m1 0h1M2 35.5h1m1 0h3m1 0h1m1 0h6m2 0h2m1 0h2m1 0h2m3 0h4m1 0h1m1 0h3M2 36.5h1m1 0h3m1 0h1m1 0h1m2 0h2m1 0h2m5 0h1m4 0h1m8 0h2M2 37.5h1m5 0h1m3 0h2m3 0h2m3 0h2m2 0h1m1 0h3m3 0h1m3 0h1M2 38.5h7m1 0h1m3 0h1m1 0h2m1 0h1m4 0h5m2 0h2m1 0h1m1 0h3"/></svg>
